# xmcd
#
# Track frame offsets: 
#        150
#        11450
#        22775
#        34362
#        44535
#        55620
#        66552
#        75300
#        85172
#        94815
#        105637
#        118320
#        129625
#        142155
#        154632
#        164680
#        176997
#        185275
#        198940
#        210527
#        222760
#        233310
#        244697
#        257220
#        266882
#        277732
#        286205
#        296975
#        309580
#
# Disc length: 4254 seconds
#
# Revision: 3
# Processed by: cddbd v1.5.1PL2 Copyright (c) Steve Scherf et al.
# Submitted via: ExactAudioCopy v0.95a5
#
DISCID=a8109c1d
DTITLE=Bill Ramsey - Souvenirs
DYEAR=1992
DGENRE=Oldies
TTITLE0=Wumba-Tumba Schokoladeneisverkaeufer
TTITLE1=Casa Bambu
TTITLE2=Er war vom konstantinopolitanischen Gesangsverein
TTITLE3=Cecilia
TTITLE4=Mach keinen Heck-meck
TTITLE5=Go man go
TTITLE6=Souvenirs
TTITLE7=Hier koenn' Matrosen vor Anker geh'n
TTITLE8=Telefon aus Paris
TTITLE9=Gina, Gina
TTITLE10=Jeden Tag 'ne andere Party
TTITLE11=Die Welt ist rund
TTITLE12=Pigalle (Die grosse Mausefalle)
TTITLE13=Cafe Oriental
TTITLE14=Das Maedchen mit dem aufregenden Gang
TTITLE15=Zuckerpuppe (aus der Bauchtanz-Truppe)
TTITLE16=Mach' ein Foto davon
TTITLE17=Weit, weg von hier (& Chris Howland)
TTITLE18=Missouri Cowboy (& Peter Alexander)
TTITLE19=Immer zieht es mich zu ihr (& Peter Alexander)
TTITLE20=Yes,  Fanny, ich tu' das (& Margret Fuerer and Hazy Osterwald S
TTITLE20=extett)
TTITLE21=So ein Stroll in Tirol (& Margret Fuerer and Hazy Osterwald Sex
TTITLE21=tett)
TTITLE22=Nichts gegen die Weiber (& Bibi Johns)
TTITLE23=Got a call from Paris (Englisch)
TTITLE24=Go, man go (Englisch)
TTITLE25=Rockin' mountain (Englisch)
TTITLE26=Gina, Gina (Englisch)
TTITLE27=Pigalle (Daenisch)
TTITLE28=Telefon fra Paris (Daenisch)
EXTD=YEAR: 1992
EXTT0=
EXTT1=
EXTT2=
EXTT3=
EXTT4=
EXTT5=
EXTT6=
EXTT7=
EXTT8=
EXTT9=
EXTT10=
EXTT11=
EXTT12=
EXTT13=
EXTT14=
EXTT15=
EXTT16=
EXTT17=
EXTT18=
EXTT19=
EXTT20=
EXTT21=
EXTT22=
EXTT23=
EXTT24=
EXTT25=
EXTT26=
EXTT27=
EXTT28=
PLAYORDER=
